<svg xmlns="http://www.w3.org/2000/svg" width="291" height="36" viewBox="0 0 291 36" fill="none">
    <path d="M238.689 34.9753C229.809 34.9753 224.721 29.7433 224.721 21.8713C224.721 14.0953 229.665 8.47932 238.737 8.47932C246.753 8.47932 251.265 12.8953 251.265 19.8073H242.961C242.625 17.3593 240.897 16.2553 238.401 16.2553C235.617 16.2553 234.081 17.8393 233.937 21.1033C235.233 19.5673 237.009 19.2313 238.401 19.2313C239.601 19.2313 240.561 19.4713 241.377 19.9033V24.4153C239.985 23.7913 238.737 23.5033 237.537 23.5033C235.761 23.5033 234.897 24.1273 234.897 24.8473C234.897 25.9513 236.673 27.0073 239.889 27.0073C242.673 27.0073 245.169 26.2393 248.769 24.0793V32.2873C246.849 33.5353 243.345 34.9753 238.689 34.9753Z" fill="white"/>
    <path d="M212.888 35.0233C206.264 35.0233 201.752 31.8553 201.752 26.0953H210.344C210.392 27.9673 211.4 28.9753 213.08 28.9753C214.424 28.9753 215.096 28.3513 215.096 27.5833C215.096 24.1753 202.04 25.3753 202.04 16.6873C202.04 11.9833 205.832 8.43132 212.936 8.43132C219.608 8.43132 223.496 11.5513 223.496 16.9753H215.288C215.288 15.4393 214.472 14.2873 212.888 14.2873C211.688 14.2873 211.064 14.9593 211.064 15.6793C211.064 18.8953 223.736 17.5513 223.736 26.6233C223.736 31.7593 219.656 35.0233 212.888 35.0233Z" fill="white"/>
    <path d="M199.108 9.00732V34.4473H189.748V28.7353C188.692 32.2873 186.484 35.0233 182.212 35.0233C177.268 35.0233 174.82 31.5673 174.82 26.4793V9.00732H184.18V23.1673C184.18 25.3273 184.948 26.8153 186.724 26.8153C188.836 26.8153 189.748 24.7993 189.748 21.8233V9.00732H199.108Z" fill="white"/>
    <path d="M159.045 35.0233C151.125 35.0233 145.173 29.3113 145.173 21.7753C145.173 14.2393 151.125 8.52732 159.045 8.52732C166.965 8.52732 172.917 14.2393 172.917 21.7753C172.917 29.3113 166.965 35.0233 159.045 35.0233ZM154.677 21.7753C154.677 24.8473 156.357 26.7673 159.045 26.7673C161.733 26.7673 163.413 24.8473 163.413 21.7753C163.413 18.7033 161.733 16.7833 159.045 16.7833C156.357 16.7833 154.677 18.7033 154.677 21.7753Z" fill="white"/>
    <path d="M118.577 34.4473V0.847321H127.937V14.7673C129.041 11.2153 131.393 8.43132 135.857 8.43132C140.801 8.43132 143.249 11.8873 143.249 16.9753V34.4473H133.889V20.2873C133.889 18.2713 133.265 16.6393 131.249 16.6393C129.041 16.6393 127.937 18.6073 127.937 21.6313V34.4473H118.577Z" fill="white"/>
    <path d="M104.11 34.9753C95.2305 34.9753 90.1425 29.7433 90.1425 21.8713C90.1425 14.0953 95.0865 8.47932 104.158 8.47932C112.174 8.47932 116.686 12.8953 116.686 19.8073H108.382C108.046 17.3593 106.318 16.2553 103.822 16.2553C101.038 16.2553 99.5025 17.8393 99.3585 21.1033C100.654 19.5673 102.43 19.2313 103.822 19.2313C105.022 19.2313 105.982 19.4713 106.798 19.9033V24.4153C105.406 23.7913 104.158 23.5033 102.958 23.5033C101.182 23.5033 100.318 24.1273 100.318 24.8473C100.318 25.9513 102.094 27.0073 105.31 27.0073C108.094 27.0073 110.59 26.2393 114.19 24.0793V32.2873C112.27 33.5353 108.766 34.9753 104.11 34.9753Z" fill="white"/>
    <path d="M72.405 34.4473V9.00732H81.765V16.8313C82.725 11.3113 85.029 7.99932 89.109 8.67132V18.7033C85.365 17.5993 81.765 19.8553 81.765 25.0393V34.4473H72.405Z" fill="white"/>
    <path d="M61.1677 34.4473L60.3997 30.8953C59.1037 33.3433 56.7037 34.8793 53.3917 34.8793C48.9277 34.8793 45.4237 32.1433 45.4237 27.2473C45.4237 22.3993 48.9277 19.9033 53.9197 19.9033C56.7037 19.9033 58.7677 20.6713 60.0157 22.2073V18.8953C60.0157 17.3113 59.2957 16.2553 56.8477 16.2553C54.6877 16.2553 53.8717 17.1193 53.6317 18.4633H45.9997C46.0477 12.4633 49.7437 8.52732 57.7117 8.52732C65.4397 8.52732 69.3757 12.3193 69.3757 18.9913V34.4473H61.1677ZM54.9277 26.6713C54.9277 27.9193 55.7437 28.6393 57.3757 28.6393C59.1517 28.6393 60.0157 27.8233 60.0157 26.4793C60.0157 25.2793 59.2477 24.6553 57.5677 24.6553C55.7917 24.6553 54.9277 25.3753 54.9277 26.6713Z" fill="white"/>
    <path d="M7.95748 34.4473L0.469482 0.847321H10.6935L14.3415 23.3113L18.6615 0.847321H27.7335L32.1975 23.3113L35.7015 0.847321H45.9255L38.6775 34.4473H26.8695L23.0775 16.5433L19.2855 34.4473H7.95748Z" fill="white"/>
    <path fill-rule="evenodd" clip-rule="evenodd" d="M258.99 11.3848C258.99 10.0391 260.064 8.94732 261.39 8.94732H277.39C278.714 8.94732 279.79 10.0391 279.79 11.3848V13.8223H282.324C283.175 13.8223 283.99 14.1625 284.589 14.7719L288.454 18.6973C289.054 19.3067 289.39 20.1345 289.39 20.9977V26.8223C290.275 26.8223 290.99 27.5485 290.99 28.4473C290.99 29.3461 290.275 30.0723 289.39 30.0723H287.79C287.79 32.7637 285.64 34.9473 282.99 34.9473C280.339 34.9473 278.189 32.7637 278.189 30.0723H271.79C271.79 32.7637 269.64 34.9473 266.99 34.9473C264.339 34.9473 262.189 32.7637 262.189 30.0723H261.39C260.064 30.0723 258.99 28.9805 258.99 27.6348V21.9473H272.99C273.542 21.9473 273.99 21.4996 273.99 20.9473C273.99 20.395 273.542 19.9473 272.99 19.9473H258.99V17.9473H274.99C275.542 17.9473 275.99 17.4996 275.99 16.9473C275.99 16.395 275.542 15.9473 274.99 15.9473H258.99V13.9473H272.99C273.542 13.9473 273.99 13.4996 273.99 12.9473C273.99 12.395 273.542 11.9473 272.99 11.9473H258.99V11.3848ZM282.324 17.0723H279.79V21.9473H286.189V20.9977L282.324 17.0723ZM265.292 28.3488C264.842 28.8058 264.589 29.4258 264.589 30.0723C264.589 30.7188 264.842 31.3388 265.292 31.7959C265.743 32.253 266.353 32.5098 266.99 32.5098C267.626 32.5098 268.236 32.253 268.687 31.7959C269.137 31.3388 269.39 30.7188 269.39 30.0723C269.39 29.4258 269.137 28.8058 268.687 28.3488C268.236 27.8917 267.626 27.6348 266.99 27.6348C266.353 27.6348 265.743 27.8917 265.292 28.3488ZM284.687 28.3488C284.236 27.8917 283.626 27.6348 282.99 27.6348C282.353 27.6348 281.743 27.8917 281.292 28.3488C280.842 28.8058 280.589 29.4258 280.589 30.0723C280.589 30.7188 280.842 31.3388 281.292 31.7959C281.743 32.253 282.353 32.5098 282.99 32.5098C283.626 32.5098 284.236 32.253 284.687 31.7959C285.137 31.3388 285.39 30.7188 285.39 30.0723C285.39 29.4258 285.137 28.8058 284.687 28.3488Z" fill="white"/>
    <path d="M258.99 19.9473V21.9473H251.989C251.437 21.9473 250.989 21.4996 250.989 20.9473C250.989 20.395 251.437 19.9473 251.989 19.9473H258.99Z" fill="white"/>
    <path d="M258.99 15.9473V17.9473H253.989C253.437 17.9473 252.989 17.4996 252.989 16.9473C252.989 16.395 253.437 15.9473 253.989 15.9473H258.99Z" fill="white"/>
    <path d="M258.99 11.9473V13.9473H251.989C251.437 13.9473 250.989 13.4996 250.989 12.9473C250.989 12.395 251.437 11.9473 251.989 11.9473H258.99Z" fill="white"/>
</svg>