<svg width="15" height="14" viewBox="0 0 15 14" fill="none" xmlns="http://www.w3.org/2000/svg">
<path fill-rule="evenodd" clip-rule="evenodd" d="M1.07358 3.78608C1.20868 3.55263 1.50745 3.4729 1.74089 3.608L7.24592 6.7938L12.7119 3.62762C12.9453 3.49242 13.2441 3.57203 13.3793 3.80542C13.5145 4.03881 13.4349 4.33761 13.2015 4.4728L7.49082 7.78072C7.33947 7.86839 7.1528 7.86843 7.00141 7.78082L1.25166 4.45339C1.01821 4.31829 0.938486 4.01953 1.07358 3.78608Z" fill="white"/>
<path fill-rule="evenodd" clip-rule="evenodd" d="M7.24603 6.86324C7.51575 6.86324 7.7344 7.08189 7.7344 7.35161V13.2577C7.7344 13.5274 7.51575 13.746 7.24603 13.746C6.97631 13.746 6.75766 13.5274 6.75766 13.2577V7.35161C6.75766 7.08189 6.97631 6.86324 7.24603 6.86324Z" fill="white"/>
<path fill-rule="evenodd" clip-rule="evenodd" d="M8.83182 0.374404L8.83302 0.375077L12.3077 2.30114V2.30114C12.796 2.57159 13.2116 3.02619 13.5036 3.52137C13.7956 4.01657 13.9921 4.59978 13.9921 5.15721V7.54048C13.9921 7.8102 13.7734 8.02885 13.5037 8.02885C13.234 8.02885 13.0153 7.8102 13.0153 7.54048V5.15721C13.0153 4.81603 12.8895 4.40297 12.6622 4.01748C12.4349 3.63203 12.1341 3.32147 11.8346 3.15563L8.35486 1.22679C8.07466 1.06948 7.67398 0.976743 7.24603 0.976743C6.81808 0.976743 6.4174 1.06947 6.1372 1.22678L6.13489 1.22807L2.65768 3.15552C2.35818 3.32137 2.05714 3.63203 1.82986 4.01748C1.60256 4.40297 1.47674 4.81603 1.47674 5.15721V8.84281C1.47674 9.18398 1.60256 9.59705 1.82986 9.98253C2.05714 10.368 2.35798 10.6785 2.65749 10.8444L6.1372 12.7732C6.4174 12.9305 6.81807 13.0233 7.24603 13.0233C7.67399 13.0233 8.07467 12.9305 8.35487 12.7732C8.59006 12.6412 8.88776 12.7248 9.01979 12.96C9.15183 13.1952 9.06821 13.4929 8.83302 13.6249C8.37089 13.8844 7.79481 14 7.24603 14C6.69771 14 6.12215 13.8846 5.66022 13.6256L5.65905 13.6249L2.18434 11.6989V11.6989C1.69603 11.4284 1.28048 10.9738 0.988495 10.4786C0.6965 9.98344 0.5 9.40024 0.5 8.84281V5.15721C0.5 4.59978 0.6965 4.01657 0.988495 3.52137C1.28048 3.02619 1.69583 2.57169 2.18415 2.30124L5.66025 0.374404C6.12216 0.115443 6.69771 0 7.24603 0C7.79435 0 8.3699 0.115443 8.83182 0.374404Z" fill="white"/>
<path fill-rule="evenodd" clip-rule="evenodd" d="M11.9344 9.44185C11.0533 9.44185 10.3391 10.1561 10.3391 11.0372C10.3391 11.9183 11.0533 12.6326 11.9344 12.6326C12.8155 12.6326 13.5297 11.9183 13.5297 11.0372C13.5297 10.1561 12.8155 9.44185 11.9344 9.44185ZM9.36231 11.0372C9.36231 9.61668 10.5139 8.46511 11.9344 8.46511C13.3549 8.46511 14.5065 9.61669 14.5065 11.0372C14.5065 12.4577 13.3549 13.6093 11.9344 13.6093C10.5139 13.6093 9.36231 12.4577 9.36231 11.0372Z" fill="white"/>
<path fill-rule="evenodd" clip-rule="evenodd" d="M13.4123 12.5151C13.603 12.3244 13.9123 12.3244 14.103 12.5151L14.7541 13.1663C14.9449 13.357 14.9449 13.6662 14.7541 13.8569C14.5634 14.0477 14.2542 14.0477 14.0635 13.8569L13.4123 13.2058C13.2216 13.0151 13.2216 12.7058 13.4123 12.5151Z" fill="white"/>
</svg>
