<svg width="18" height="20" viewBox="0 0 18 20" fill="none" xmlns="http://www.w3.org/2000/svg">
<path d="M7.58648 19.75C8.68648 19.75 9.58648 18.85 9.58648 17.75H5.58648C5.58648 18.85 6.47648 19.75 7.58648 19.75ZM13.5865 13.75V8.75C13.5865 5.68 11.9465 3.11 9.08648 2.43V1.75C9.08648 0.92 8.41648 0.25 7.58648 0.25C6.75648 0.25 6.08648 0.92 6.08648 1.75V2.43C3.21648 3.11 1.58648 5.67 1.58648 8.75V13.75L0.296477 15.04C-0.333523 15.67 0.106477 16.75 0.996477 16.75H14.1665C15.0565 16.75 15.5065 15.67 14.8765 15.04L13.5865 13.75Z" fill="#BDC2C2"/>
<circle cx="13" cy="5.25" r="4.5" fill="#C7EE52" stroke="#202E36"/>
</svg>
