<svg width="14" height="14" viewBox="0 0 14 14" fill="none" xmlns="http://www.w3.org/2000/svg">
<path d="M8.2 4.9H5.4C5.015 4.9 4.7 4.585 4.7 4.2C4.7 3.815 5.015 3.5 5.4 3.5H8.2C8.585 3.5 8.9 3.815 8.9 4.2C8.9 4.585 8.585 4.9 8.2 4.9Z" fill="white"/>
<path d="M8.2 7H5.4C5.015 7 4.7 6.685 4.7 6.3C4.7 5.915 5.015 5.6 5.4 5.6H8.2C8.585 5.6 8.9 5.915 8.9 6.3C8.9 6.685 8.585 7 8.2 7Z" fill="white"/>
<path d="M12.05 1.05L11 0L9.95 1.05L8.9 0L7.85 1.05L6.8 0L5.75 1.05L4.7 0L3.65 1.05L2.6 0V9.8H1.2C0.815 9.8 0.5 10.115 0.5 10.5V11.9C0.5 13.062 1.438 14 2.6 14H11C12.162 14 13.1 13.062 13.1 11.9V0L12.05 1.05ZM8.9 12.6H2.6C2.215 12.6 1.9 12.285 1.9 11.9V11.2H8.9V12.6ZM11.7 11.9C11.7 12.285 11.385 12.6 11 12.6C10.615 12.6 10.3 12.285 10.3 11.9V10.5C10.3 10.115 9.985 9.8 9.6 9.8H4V2.1H11.7V11.9Z" fill="white"/>
<path d="M10.3 4.9C10.6866 4.9 11 4.5866 11 4.2C11 3.8134 10.6866 3.5 10.3 3.5C9.9134 3.5 9.6 3.8134 9.6 4.2C9.6 4.5866 9.9134 4.9 10.3 4.9Z" fill="white"/>
<path d="M10.3 7C10.6866 7 11 6.6866 11 6.3C11 5.9134 10.6866 5.6 10.3 5.6C9.9134 5.6 9.6 5.9134 9.6 6.3C9.6 6.6866 9.9134 7 10.3 7Z" fill="white"/>
</svg>
