<svg xmlns="http://www.w3.org/2000/svg" width="21" height="14" viewBox="0 0 21 14" fill="none">
    <path fill-rule="evenodd" clip-rule="evenodd" d="M17.2199 2.59427C19.1913 4.38422 20.3862 6.93442 20.492 9.59633C20.4973 9.73023 20.5 9.8648 20.5 10C20.5 11.023 20.3464 12.0105 20.0607 12.9405L20.0594 12.9447C20.013 13.0954 19.9632 13.2446 19.91 13.3922C19.7752 13.7661 19.411 14 19.0135 14H1.98645C1.58898 14 1.22484 13.7661 1.09003 13.3922C1.03632 13.2432 0.986051 13.0926 0.939312 12.9405C0.728471 12.2541 0.589566 11.5365 0.531251 10.7964C0.515485 10.5963 0.505609 10.3946 0.501795 10.1914C0.5006 10.1277 0.5 10.0639 0.5 10C0.5 4.47715 4.97715 0 10.5 0L10.5353 6.10338e-05C12.5473 0.0070076 14.4193 0.608161 15.9851 1.6372L16.0371 1.67164L16.9055 0.542717L18.0945 1.45728L17.2199 2.59427ZM15.12 2.86396C14.6959 2.58884 14.2457 2.3505 13.7741 2.15346C12.8202 1.75491 11.7782 1.52503 10.6833 1.50193C10.6224 1.50065 10.5613 1.5 10.5 1.5C5.80558 1.5 2 5.30558 2 10C2 10.8721 2.13085 11.7111 2.37318 12.5H7.37731C7.30912 12.4149 7.24432 12.327 7.18314 12.2364C6.93161 11.8641 6.74112 11.4472 6.62602 11C6.54375 10.6804 6.5 10.3453 6.5 10C6.5 7.79086 8.29086 6 10.5 6C11.1702 6 11.8019 6.16482 12.3567 6.45613L15.12 2.86396ZM17.3194 4.92507C17.0145 4.51609 16.6737 4.13546 16.3017 3.78786L15.382 4.98345C15.4345 5.03449 15.4861 5.08635 15.5369 5.13901L15.5393 5.14147C16.695 6.33997 17.4288 7.95388 17.4951 9.73587C17.4983 9.82351 17.5 9.91156 17.5 9.99998C17.5 10.0759 17.4988 10.1515 17.4964 10.2269C17.488 10.4883 17.4654 10.7462 17.4291 11C17.3546 11.5207 17.2228 12.0229 17.0403 12.5H18.6268C18.64 12.457 18.6529 12.414 18.6654 12.3707C18.883 11.6197 19 10.8246 19 10C19 8.09743 18.3759 6.34196 17.3194 4.92507ZM13.6227 12.5C13.9713 12.0652 14.2309 11.556 14.374 11C14.6732 9 13.9737 7.80375 13.5866 7.45563C13.5683 7.43347 13.5498 7.41148 13.531 7.38973L14.4595 6.18268C14.8219 6.5584 15.1312 6.98556 15.3755 7.45212C15.7309 8.13082 15.9487 8.8929 15.992 9.70134C15.9973 9.80021 16 9.89978 16 9.99998C16 10.1017 15.9972 10.2028 15.9918 10.3032C15.9507 10.7021 15.7819 11.7 15.4344 12.5H13.6227ZM10.5 7.5C9.11929 7.5 8 8.61929 8 10C8 11.3807 9.11929 12.5 10.5 12.5C11.8807 12.5 12.9787 11.3805 13 10C13.0221 8.56909 11.9167 7.5 10.5 7.5Z" fill="white"/>
</svg>