<svg width="18" height="14" viewBox="0 0 18 14" fill="none" xmlns="http://www.w3.org/2000/svg">
<path d="M1.50625 5.25H16.9938C17.5488 5.25 18 4.79883 18 4.24375C18 4.04414 17.9398 3.85 17.8305 3.68594L15.7633 0.585156C15.5199 0.21875 15.1125 0 14.6723 0H3.82773C3.39023 0 2.98008 0.21875 2.73672 0.585156L0.669531 3.6832C0.560156 3.85 0.5 4.04414 0.5 4.24102C0.5 4.79883 0.951172 5.25 1.50625 5.25ZM2.25 6.125V10.5V12.6875C2.25 13.4121 2.83789 14 3.5625 14H9.6875C10.4121 14 11 13.4121 11 12.6875V10.5V6.125H9.25V10.5H4V6.125H2.25ZM14.5 6.125V13.125C14.5 13.609 14.891 14 15.375 14C15.859 14 16.25 13.609 16.25 13.125V6.125H14.5Z" fill="white"/>
</svg>
